<mxfile host="drawio-plugin" modified="2022-11-03T10:48:49.477Z" agent="5.0 (Macintosh; Intel Mac OS X 10_15_7) AppleWebKit/537.36 (KHTML, like Gecko) Chrome/98.0.4758.102 Safari/537.36" etag="PkHhJf8PU5Tk1-b2oBdh" version="15.5.4" type="embed"><diagram id="23iRSUPoRavnBvh4doch" name="Page-1"><mxGraphModel dx="1230" dy="548" grid="1" gridSize="10" guides="1" tooltips="1" connect="1" arrows="1" fold="1" page="1" pageScale="1" pageWidth="827" pageHeight="1169" math="0" shadow="0"><root><mxCell id="0"/><mxCell id="1" parent="0"/><mxCell id="98" value="redis" style="rounded=0;whiteSpace=wrap;html=1;verticalAlign=top;" vertex="1" parent="1"><mxGeometry x="1057" y="160" width="220" height="350" as="geometry"/></mxCell><mxCell id="60" value="抓取" style="rounded=0;whiteSpace=wrap;html=1;" parent="1" vertex="1"><mxGeometry x="70" y="360" width="120" height="60" as="geometry"/></mxCell><mxCell id="62" value="校验" style="whiteSpace=wrap;html=1;rounded=0;" parent="1" vertex="1"><mxGeometry x="360" y="360" width="120" height="60" as="geometry"/></mxCell><mxCell id="64" value="" style="shape=cylinder3;whiteSpace=wrap;html=1;boundedLbl=1;backgroundOutline=1;size=15;" parent="1" vertex="1"><mxGeometry x="240" y="350" width="60" height="80" as="geometry"/></mxCell><mxCell id="65" value="" style="endArrow=classic;html=1;rounded=0;" parent="1" source="60" target="64" edge="1"><mxGeometry width="50" height="50" relative="1" as="geometry"><mxPoint x="10" y="540" as="sourcePoint"/><mxPoint x="60" y="490" as="targetPoint"/></mxGeometry></mxCell><mxCell id="66" value="" style="endArrow=classic;html=1;rounded=0;" parent="1" source="64" target="62" edge="1"><mxGeometry width="50" height="50" relative="1" as="geometry"><mxPoint x="130" y="610" as="sourcePoint"/><mxPoint x="180" y="560" as="targetPoint"/></mxGeometry></mxCell><mxCell id="67" value="" style="endArrow=classic;html=1;rounded=0;edgeStyle=orthogonalEdgeStyle;" parent="1" source="62" target="64" edge="1"><mxGeometry width="50" height="50" relative="1" as="geometry"><mxPoint x="510" y="610" as="sourcePoint"/><mxPoint x="560" y="560" as="targetPoint"/><Array as="points"><mxPoint x="420" y="480"/><mxPoint x="270" y="480"/></Array></mxGeometry></mxCell><mxCell id="68" value="API" style="rounded=0;whiteSpace=wrap;html=1;" parent="1" vertex="1"><mxGeometry x="210" y="210" width="120" height="60" as="geometry"/></mxCell><mxCell id="71" value="" style="endArrow=classic;html=1;rounded=0;" parent="1" source="64" target="68" edge="1"><mxGeometry width="50" height="50" relative="1" as="geometry"><mxPoint x="70" y="340" as="sourcePoint"/><mxPoint x="120" y="290" as="targetPoint"/></mxGeometry></mxCell><mxCell id="72" value="自建IP" style="rounded=0;whiteSpace=wrap;html=1;" parent="1" vertex="1"><mxGeometry x="70" y="480" width="120" height="60" as="geometry"/></mxCell><mxCell id="75" value="" style="endArrow=classic;html=1;rounded=0;" parent="1" source="72" target="64" edge="1"><mxGeometry width="50" height="50" relative="1" as="geometry"><mxPoint x="60" y="580" as="sourcePoint"/><mxPoint x="110" y="530" as="targetPoint"/></mxGeometry></mxCell><mxCell id="76" value="66ip&lt;br&gt;fetch task" style="rounded=0;whiteSpace=wrap;html=1;" parent="1" vertex="1"><mxGeometry x="860" y="270" width="120" height="60" as="geometry"/></mxCell><mxCell id="80" value="" style="rounded=0;orthogonalLoop=1;jettySize=auto;html=1;" parent="1" source="76" target="79" edge="1"><mxGeometry relative="1" as="geometry"><mxPoint x="1027" y="312" as="sourcePoint"/></mxGeometry></mxCell><mxCell id="84" value="" style="edgeStyle=none;rounded=0;orthogonalLoop=1;jettySize=auto;html=1;" parent="1" source="79" target="83" edge="1"><mxGeometry relative="1" as="geometry"/></mxCell><mxCell id="79" value="proxypool:http" style="rounded=0;whiteSpace=wrap;html=1;" parent="1" vertex="1"><mxGeometry x="1107" y="240" width="120" height="60" as="geometry"/></mxCell><mxCell id="88" value="" style="edgeStyle=none;rounded=0;orthogonalLoop=1;jettySize=auto;html=1;" parent="1" source="81" target="87" edge="1"><mxGeometry relative="1" as="geometry"/></mxCell><mxCell id="81" value="proxypool:https" style="rounded=0;whiteSpace=wrap;html=1;" parent="1" vertex="1"><mxGeometry x="1107" y="370" width="120" height="60" as="geometry"/></mxCell><mxCell id="82" value="" style="rounded=0;orthogonalLoop=1;jettySize=auto;html=1;" parent="1" source="76" target="81" edge="1"><mxGeometry relative="1" as="geometry"><mxPoint x="1027" y="351" as="sourcePoint"/></mxGeometry></mxCell><mxCell id="86" value="" style="edgeStyle=none;rounded=0;orthogonalLoop=1;jettySize=auto;html=1;" parent="1" source="83" target="85" edge="1"><mxGeometry relative="1" as="geometry"/></mxCell><mxCell id="83" value="http&lt;br&gt;validate task" style="rounded=0;whiteSpace=wrap;html=1;" parent="1" vertex="1"><mxGeometry x="1320" y="240" width="120" height="60" as="geometry"/></mxCell><mxCell id="91" value="" style="edgeStyle=none;rounded=0;orthogonalLoop=1;jettySize=auto;html=1;" parent="1" source="85" target="90" edge="1"><mxGeometry relative="1" as="geometry"/></mxCell><mxCell id="85" value="DB&lt;br&gt;http,&lt;br&gt;https&lt;br&gt;alibaba" style="whiteSpace=wrap;html=1;rounded=0;" parent="1" vertex="1"><mxGeometry x="1530" y="320" width="120" height="60" as="geometry"/></mxCell><mxCell id="89" value="" style="edgeStyle=none;rounded=0;orthogonalLoop=1;jettySize=auto;html=1;" parent="1" source="87" target="85" edge="1"><mxGeometry relative="1" as="geometry"/></mxCell><mxCell id="87" value="https&lt;br&gt;validate task" style="rounded=0;whiteSpace=wrap;html=1;" parent="1" vertex="1"><mxGeometry x="1320" y="370" width="120" height="60" as="geometry"/></mxCell><mxCell id="90" value="http&lt;br&gt;validate task" style="rounded=0;whiteSpace=wrap;html=1;" parent="1" vertex="1"><mxGeometry x="1720" y="260" width="120" height="60" as="geometry"/></mxCell><mxCell id="92" value="http&lt;br&gt;validate task" style="rounded=0;whiteSpace=wrap;html=1;" parent="1" vertex="1"><mxGeometry x="1720" y="380" width="120" height="60" as="geometry"/></mxCell><mxCell id="93" value="" style="edgeStyle=none;rounded=0;orthogonalLoop=1;jettySize=auto;html=1;" parent="1" source="85" target="92" edge="1"><mxGeometry relative="1" as="geometry"/></mxCell><mxCell id="97" value="" style="edgeStyle=none;rounded=0;orthogonalLoop=1;jettySize=auto;html=1;" parent="1" source="94" target="96" edge="1"><mxGeometry relative="1" as="geometry"/></mxCell><mxCell id="94" value="alibaba&lt;br&gt;validate task" style="rounded=0;whiteSpace=wrap;html=1;" parent="1" vertex="1"><mxGeometry x="1610" y="510" width="120" height="60" as="geometry"/></mxCell><mxCell id="95" value="" style="endArrow=classic;html=1;rounded=0;" parent="1" source="85" target="94" edge="1"><mxGeometry width="50" height="50" relative="1" as="geometry"><mxPoint x="1560" y="470" as="sourcePoint"/><mxPoint x="1610" y="420" as="targetPoint"/></mxGeometry></mxCell><mxCell id="96" value="DB&lt;br&gt;alibaba" style="rounded=0;whiteSpace=wrap;html=1;" parent="1" vertex="1"><mxGeometry x="1810" y="555" width="120" height="60" as="geometry"/></mxCell><mxCell id="99" value="a web&lt;br&gt;fetch task" style="rounded=0;whiteSpace=wrap;html=1;" vertex="1" parent="1"><mxGeometry x="860" y="380" width="120" height="60" as="geometry"/></mxCell><mxCell id="100" value="" style="rounded=0;orthogonalLoop=1;jettySize=auto;html=1;exitX=1;exitY=0.5;exitDx=0;exitDy=0;" edge="1" parent="1" source="99" target="79"><mxGeometry relative="1" as="geometry"><mxPoint x="1027" y="312" as="sourcePoint"/></mxGeometry></mxCell><mxCell id="101" value="" style="rounded=0;orthogonalLoop=1;jettySize=auto;html=1;exitX=1;exitY=0.5;exitDx=0;exitDy=0;" edge="1" parent="1" source="99" target="81"><mxGeometry relative="1" as="geometry"><mxPoint x="1027" y="351" as="sourcePoint"/></mxGeometry></mxCell></root></mxGraphModel></diagram></mxfile>